<svg width="113" height="74" fill="none" xmlns="http://www.w3.org/2000/svg"><path opacity=".28" d="M9.6 62.936l-1.606 1.192L9.6 62.936zm0-51.552l-1.606-1.192L9.6 11.384zm38.304 0l-1.606 1.192.008.01 1.598-1.202zM48 62.936l-1.606-1.192L48 62.936zM35.424 20.792l-1.855.749 1.855-.749zm-13.248 0l1.85.761.005-.012-1.855-.749zM28.8 69.864c-7.846 0-13.609-2.748-17.594-8.12l-3.212 2.384c4.847 6.532 11.884 9.736 20.806 9.736v-4zm-17.594-8.12c-4.058-5.47-6.23-13.587-6.23-24.632h-4c0 11.482 2.244 20.581 7.018 27.016l3.212-2.384zm-6.23-24.632c0-10.979 2.17-19.065 6.23-24.536l-3.212-2.384C3.22 16.625.976 25.69.976 37.112h4zm6.23-24.536c3.986-5.372 9.748-8.12 17.594-8.12v-4c-8.922 0-15.96 3.204-20.806 9.736l3.212 2.384zM28.8 4.456c7.776 0 13.51 2.744 17.498 8.12l3.212-2.384C44.667 3.664 37.664.456 28.8.456v4zm17.506 8.13c4.117 5.47 6.318 13.552 6.318 24.526h4c0-11.426-2.28-20.497-7.122-26.93l-3.196 2.405zm6.318 24.526c0 11.045-2.172 19.163-6.23 24.632l3.212 2.384c4.774-6.435 7.018-15.534 7.018-27.016h-4zm-6.23 24.632c-3.986 5.372-9.748 8.12-17.594 8.12v4c8.922 0 15.96-3.204 20.806-9.736l-3.212-2.384zM28.8 60.52c1.92 0 3.674-.528 5.164-1.65 1.468-1.107 2.546-2.69 3.315-4.593l-3.71-1.498c-.575 1.426-1.273 2.338-2.013 2.896-.718.541-1.604.845-2.756.845v4zm8.479-6.243c1.498-3.71 2.161-9.516 2.161-17.165h-4c0 7.582-.68 12.721-1.87 15.667l3.709 1.498zm2.161-17.165c0-7.588-.664-13.36-2.161-17.069l-3.71 1.498c1.19 2.947 1.871 8.055 1.871 15.571h4zm-2.161-17.069c-.769-1.902-1.847-3.486-3.315-4.592-1.49-1.123-3.244-1.651-5.164-1.651v4c1.152 0 2.038.304 2.756.845.74.558 1.438 1.47 2.013 2.896l3.71-1.498zM28.8 13.8c-1.92 0-3.674.528-5.164 1.65-1.468 1.107-2.546 2.69-3.314 4.593l3.709 1.498c.575-1.426 1.273-2.338 2.013-2.896.718-.541 1.604-.845 2.756-.845v-4zm-8.473 6.23c-1.505 3.655-2.167 9.437-2.167 17.082h4c0-7.587.682-12.685 1.865-15.559l-3.698-1.523zM18.16 37.112c0 7.65.663 13.455 2.162 17.165l3.709-1.498c-1.19-2.946-1.871-8.085-1.871-15.667h-4zm2.162 17.165c.768 1.902 1.846 3.486 3.314 4.592 1.49 1.123 3.245 1.651 5.164 1.651v-4c-1.152 0-2.038-.304-2.756-.845-.74-.558-1.438-1.47-2.014-2.896l-3.709 1.498zm78.233-18.125l-.699-1.874-5.682 2.117L98 38.074l.553-1.922zm8.832 5.952l-1.613 1.183.008.011.009.012 1.596-1.206zm.096 20.64l1.612 1.183-1.612-1.183zm-9.025 6.72l.743 1.857.008-.003.008-.003-.758-1.851zm-25.535.672l-.575 1.916.014.004.015.004.546-1.924zm-9.985-4.896l-1.214 1.589.007.005.008.006 1.2-1.6zm-2.303-2.592l-1.813.846.012.024.012.024 1.789-.894zm.96-8.352l1.554 1.258.014-.017.014-.018-1.583-1.223zm6.431-1.632l-.827 1.82.07.033.074.027.683-1.88zm2.88 1.344l-.931 1.77.018.01.02.009.893-1.789zm.864.48l-1.028 1.715.188.113.208.07.632-1.898zm1.249.48l.894-1.789-.053-.026-.054-.023-.787 1.838zm5.471 2.4l-.677 1.882.044.016.045.014.588-1.912zm13.249-.96l-1.17-1.623-.015.011-.016.012 1.2 1.6zm0-11.136l-1.125 1.654 1.124-1.654zm-1.633-27.168l-1.38 1.447.017.017.018.016 1.346-1.48zm-10.944-1.152l-.677-1.882-.012.005-.013.004.703 1.873zm-5.184 2.304l.86 1.806.018-.009.017-.008-.895-1.789zm-2.015.96l-.86-1.806-.036.017-.036.02.931 1.769zm-2.88 1.44l.683 1.88.073-.027.071-.032-.828-1.821zm-6.432-1.632l-1.583 1.223.014.018.014.017 1.555-1.258zm1.343-11.04L62.8 7.38l-.01.007-.01.008 1.215 1.589zm9.697-4.8l-.584-1.913-.01.003.594 1.91zm23.903.576l-.787 1.838.011.005.776-1.843zm8.353 6.528l-1.653 1.127.009.012.009.013 1.635-1.152zm.192 19.104l-1.646-1.136-.006.008 1.652 1.128zm-8.138 7.682c3.396.978 5.949 2.726 7.773 5.213l3.225-2.366c-2.4-3.273-5.735-5.493-9.89-6.69L98 38.073zm7.79 5.236c1.879 2.486 2.86 5.536 2.86 9.258h4c0-4.47-1.196-8.396-3.669-11.67l-3.191 2.412zm2.86 9.258c0 3.52-.944 6.489-2.781 8.993l3.225 2.366c2.387-3.255 3.556-7.071 3.556-11.359h-4zm-2.781 8.993c-1.858 2.533-4.544 4.566-8.17 6.052l1.517 3.702c4.182-1.715 7.512-4.161 9.878-7.388l-3.225-2.366zm-8.154 6.046c-3.552 1.42-7.802 2.161-12.793 2.161v4c5.376 0 10.15-.796 14.278-2.447l-1.485-3.714zm-12.793 2.161c-3.984 0-7.8-.52-11.455-1.556l-1.09 3.848c4.024 1.14 8.208 1.708 12.544 1.708v-4zM73.496 68.22c-3.645-1.093-6.755-2.627-9.359-4.58l-2.4 3.2c3.029 2.271 6.575 4.001 10.61 5.212l1.15-3.832zm-9.344-4.569c-.93-.711-1.458-1.354-1.73-1.897l-3.577 1.788c.624 1.25 1.632 2.334 2.878 3.287l2.43-3.178zm-1.706-1.849c-.302-.646-.485-1.466-.485-2.514h-4c0 1.512.265 2.932.86 4.206l3.625-1.692zm-.485-2.514c0-1.597.429-2.797 1.187-3.734l-3.109-2.516c-1.418 1.751-2.078 3.879-2.078 6.25h4zm1.215-3.77c.758-.98 1.544-1.334 2.45-1.334v-4c-2.295 0-4.197 1.054-5.615 2.89l3.165 2.445zm2.45-1.334c.655 0 1.166.116 1.572.3l1.655-3.64c-1.002-.456-2.091-.66-3.228-.66v4zm1.716.36c.576.21 1.442.607 2.632 1.234l1.863-3.54c-1.242-.653-2.296-1.151-3.128-1.454l-1.367 3.76zm2.67 1.253c.198.1.44.233.728.406l2.058-3.43c-.351-.21-.685-.397-.998-.554l-1.789 3.578zm1.125.588c.322.108.686.247 1.093.421l1.575-3.676c-.489-.21-.957-.39-1.403-.54l-1.265 3.795zm.986.372c2.096 1.048 3.995 1.883 5.69 2.493l1.354-3.764c-1.506-.542-3.255-1.307-5.255-2.307l-1.789 3.578zm5.778 2.523c1.885.58 3.943.856 6.156.856v-4c-1.882 0-3.536-.236-4.98-.68l-1.176 3.824zm6.156.856c3.693 0 6.807-.573 8.88-2.128l-2.4-3.2c-.998.749-3.004 1.328-6.48 1.328v4zm8.85-2.105c2.297-1.655 3.23-4.305 3.23-7.383h-4c0 2.298-.666 3.488-1.568 4.137l2.337 3.246zm3.23-7.383c0-2.944-.971-5.463-3.275-7.03l-2.25 3.308c.897.61 1.525 1.674 1.525 3.722h4zm-3.275-7.03c-2.115-1.438-5.25-1.978-8.996-1.978v4c3.549 0 5.662.548 6.747 1.286l2.25-3.308zm-8.996-1.978h-5.953v4h5.953v-4zm-5.953 0c-1.392 0-2.294-.455-2.957-1.274l-3.109 2.516c1.513 1.87 3.619 2.758 6.067 2.758v-4zm-2.957-1.274c-.778-.961-1.186-2.108-1.186-3.542h-4c0 2.278.679 4.331 2.077 6.058l3.109-2.516zm-1.186-3.542c0-1.434.408-2.58 1.186-3.542l-3.109-2.516c-1.398 1.727-2.078 3.78-2.078 6.058h4zm1.186-3.542c.663-.819 1.565-1.274 2.958-1.274v-4c-2.448 0-4.554.889-6.067 2.758l3.109 2.516zm2.958-1.274h4.223v-4h-4.224v4zm4.223 0c3.624 0 6.663-.51 8.759-1.852l-2.157-3.368c-1.104.706-3.185 1.22-6.602 1.22v4zm8.759-1.852c2.284-1.462 3.322-3.8 3.322-6.58h-4c0 1.7-.563 2.626-1.479 3.212l2.157 3.369zm3.322-6.58c0-2.784-.844-5.204-2.767-6.952l-2.69 2.96c.892.812 1.457 2.04 1.457 3.992h4zm-2.731-6.919c-1.877-1.791-4.378-2.569-7.237-2.569v4c2.132 0 3.535.566 4.474 1.463l2.763-2.894zm-7.237-2.569c-2.01 0-3.937.324-5.766.982l1.355 3.764c1.371-.494 2.837-.746 4.41-.746v-4zm-5.79.991c-1.619.607-3.412 1.406-5.377 2.388l1.789 3.578c1.875-.938 3.538-1.675 4.992-2.22l-1.405-3.746zm-5.342 2.371l-2.016.96 1.72 3.612 2.015-.96-1.72-3.612zm-2.088.996a57.38 57.38 0 01-2.776 1.39l1.655 3.64a61.04 61.04 0 002.984-1.49l-1.863-3.54zm-2.632 1.33c-.447.163-1.01.264-1.716.264v4c1.084 0 2.122-.155 3.083-.504l-1.367-3.76zm-1.716.264c-.943 0-1.735-.356-2.478-1.274l-3.109 2.516c1.433 1.77 3.33 2.758 5.587 2.758v-4zm-2.45-1.239c-.786-1.017-1.215-2.27-1.215-3.865h-4c0 2.373.66 4.512 2.05 6.31l3.165-2.445zm-1.215-3.865c0-1.135.191-1.925.461-2.466l-3.577-1.788c-.626 1.252-.883 2.7-.883 4.254h4zm.461-2.466c.272-.543.8-1.186 1.73-1.897l-2.43-3.178c-1.245.953-2.253 2.038-2.877 3.287l3.577 1.788zm1.71-1.882c2.547-1.896 5.57-3.4 9.094-4.494l-1.185-3.82c-3.9 1.21-7.341 2.906-10.297 5.106l2.388 3.208zm9.085-4.491C77.866 5 81.478 4.456 85.114 4.456v-4c-4.043 0-8.047.607-12.007 1.815l1.167 3.826zm10.84-1.641c4.522 0 8.405.733 11.693 2.142l1.575-3.676C94.502 1.259 90.065.456 85.115.456v4zm11.704 2.147c3.352 1.411 5.806 3.363 7.476 5.812l3.305-2.254c-2.17-3.183-5.284-5.583-9.228-7.244l-1.553 3.686zm7.494 5.837c1.727 2.452 2.611 5.307 2.611 8.64h4c0-4.09-1.101-7.764-3.342-10.944l-3.269 2.304zm2.611 8.64c0 3.147-.823 5.848-2.43 8.176l3.291 2.272c2.105-3.048 3.139-6.555 3.139-10.448h-4zm-2.436 8.184c-1.537 2.25-3.715 3.927-6.63 5.014l1.396 3.748c3.612-1.346 6.49-3.508 8.537-6.506l-3.303-2.256z" fill="#000"/></svg>