<svg width="115" height="75" fill="none" xmlns="http://www.w3.org/2000/svg"><path opacity=".28" d="M9.6 62.936l-1.624 1.167.006.008L9.6 62.936zm0-51.744l1.6 1.2.006-.008L9.6 11.192zm38.4 0l-1.606 1.192.006.008 1.6-1.2zm0 51.744l1.618 1.175.006-.008L48 62.936zm-12.384-9.888l-1.822-.825-.003.008-.004.008 1.829.809zm0-31.968l-1.817.836.01.022.01.022 1.797-.88zm-13.728 0l-1.803-.865-.004.007-.003.008 1.81.85zm0 31.968l-1.835.796.01.021.01.021 1.815-.838zM28.8 70.056c-7.83 0-13.59-2.799-17.582-8.295l-3.236 2.35c4.84 6.664 11.88 9.945 20.818 9.945v-4zm-17.576-8.287c-4.08-5.676-6.248-13.877-6.248-24.849h-4c0 11.428 2.248 20.571 7 27.183l3.248-2.334zM4.976 36.92c0-11.048 2.173-19.127 6.224-24.528L8 9.992C3.22 16.366.976 25.44.976 36.92h4zm6.23-24.536c3.986-5.372 9.748-8.12 17.594-8.12v-4C19.878.264 12.84 3.468 7.994 10l3.212 2.384zM28.8 4.264c7.846 0 13.608 2.748 17.594 8.12L49.606 10C44.76 3.468 37.722.264 28.8.264v4zm17.6 8.128c4.052 5.403 6.224 13.451 6.224 24.432h4c0-11.42-2.244-20.46-7.024-26.832l-3.2 2.4zm6.224 24.432c0 11.04-2.17 19.27-6.248 24.945l3.248 2.334c4.754-6.613 7-15.79 7-27.279h-4zm-6.242 24.937c-3.992 5.496-9.753 8.295-17.582 8.295v4c8.939 0 15.978-3.281 20.818-9.945l-3.236-2.35zM28.8 60.04c1.92 0 3.68-.528 5.19-1.634 1.49-1.091 2.618-2.656 3.455-4.549l-3.658-1.618c-.635 1.435-1.378 2.366-2.16 2.94-.762.557-1.675.861-2.827.861v4zm8.638-6.167c1.72-3.8 2.482-9.568 2.482-17.049h-4c0 7.367-.774 12.414-2.126 15.399l3.644 1.65zm2.482-17.049c0-7.4-.756-13.047-2.508-16.624l-3.592 1.76c1.32 2.695 2.1 7.543 2.1 14.864h4zm-2.487-16.58c-.845-1.836-1.981-3.349-3.473-4.4-1.509-1.061-3.257-1.564-5.16-1.564v4c1.17 0 2.093.297 2.856.835.78.55 1.516 1.437 2.143 2.8l3.634-1.67zM28.8 14.28c-1.903 0-3.654.503-5.173 1.557-1.502 1.044-2.663 2.547-3.542 4.378l3.606 1.73c.657-1.369 1.416-2.265 2.218-2.822.785-.546 1.722-.843 2.891-.843v-4zm-8.723 5.95c-1.673 3.564-2.397 9.198-2.397 16.594h4c0-7.324.747-12.186 2.018-14.894l-3.62-1.7zM17.68 36.824c0 7.477.73 13.233 2.373 17.02l3.67-1.592c-1.3-2.997-2.043-8.057-2.043-15.428h-4zm2.392 17.062c.871 1.888 2.025 3.444 3.525 4.527 1.52 1.099 3.282 1.627 5.203 1.627v-4c-1.152 0-2.078-.304-2.861-.87-.804-.58-1.57-1.52-2.235-2.96l-3.632 1.676zm45.17 15.194l-1.483 1.342.034.037.035.035 1.415-1.414zm-.672-10.656l1.756.958-1.755-.958zm3.169-4.128l1.414 1.414.015-.016.016-.016-1.445-1.382zm16.8-17.568l1.445 1.382.004-.004-1.45-1.378zm5.28-6.816l-1.754-.962-.006.01-.005.01 1.764.942zm-12.672-12.48l.433 1.952.026-.005.026-.007-.486-1.94zm-5.473 2.112l.868 1.802.037-.018.037-.02-.942-1.764zm-4.704.768l-.526 1.93.041.01.042.01.444-1.95zm-3.456-2.208l-1.543 1.271 1.544-1.271zm-1.728-3.744l-1.981.27.006.044.008.044 1.967-.358zm.672-4.128l1.806.86.008-.016.007-.016-1.82-.828zm3.457-3.456l-.926-1.773-.011.006-.012.006.949 1.761zm9.12-3.36l.438 1.951.014-.003.014-.003-.467-1.945zm27.456 3.936l-1.276 1.54.006.005.006.005 1.264-1.55zm3.456 26.4l-1.789-.894 1.789.894zm-9.313 12l-1.403-1.425-.005.006-.006.005 1.415 1.414zM85.69 56.696l-1.414-1.414-3.414 3.414h4.829v-2zM71.388 69c-2.573 0-3.989-.593-4.73-1.334l-2.829 2.828C65.647 72.313 68.327 73 71.386 73v-4zm-4.661-1.262c-.769-.849-1.308-2.246-1.308-4.514h-4c0 2.852.678 5.359 2.341 7.198l2.967-2.684zm-1.308-4.514c0-1.497.319-2.761.908-3.842l-3.511-1.916c-.947 1.735-1.396 3.671-1.396 5.758h4zm.908-3.842c.662-1.213 1.594-2.439 2.827-3.672l-2.829-2.828c-1.455 1.455-2.635 2.981-3.51 4.584l3.512 1.916zm2.858-3.704l16.8-17.568-2.891-2.764-16.8 17.568 2.891 2.764zm16.804-17.572c2.55-2.68 4.449-5.103 5.595-7.253l-3.53-1.882c-.9 1.69-2.521 3.811-4.964 6.379l2.899 2.756zm5.584-7.232c1.22-2.226 1.879-4.506 1.879-6.818h-4c0 1.528-.43 3.152-1.386 4.894l3.507 1.924zm1.879-6.818c0-2.888-.947-5.363-3.095-7.046-2.055-1.61-4.907-2.25-8.218-2.25v4c2.898 0 4.703.577 5.751 1.398.956.75 1.562 1.922 1.562 3.898h4zM82.138 14.76c-1.728 0-3.557.252-5.477.732l.97 3.88c1.665-.416 3.164-.612 4.507-.612v-4zm-5.425.72c-1.94.43-3.935 1.209-5.98 2.3l1.883 3.529c1.795-.958 3.448-1.588 4.964-1.925l-.867-3.904zm-5.906 2.262c-1.454.7-2.552.81-3.393.62l-.887 3.9c1.975.45 4.013.048 6.015-.916l-1.735-3.604zm-3.31.64c-1.024-.279-1.815-.793-2.439-1.55l-3.087 2.543c1.168 1.42 2.681 2.378 4.473 2.866l1.053-3.858zm-2.439-1.55a6.06 6.06 0 01-1.304-2.83l-3.935.716a10.058 10.058 0 002.152 4.657l3.087-2.542zm-1.29-2.742c-.137-1.004.015-1.988.496-2.998l-3.611-1.72c-.8 1.678-1.095 3.446-.848 5.258l3.963-.54zm.511-3.03c.422-.928 1.217-1.787 2.584-2.523l-1.897-3.522c-1.961 1.056-3.47 2.501-4.328 4.39l3.641 1.655zm2.56-2.51a35.328 35.328 0 018.634-3.183l-.877-3.902a39.329 39.329 0 00-9.607 3.538l1.85 3.546zm8.662-3.19a39.009 39.009 0 019.133-1.096v-4c-3.361 0-6.718.404-10.066 1.207l.933 3.89zm9.133-1.096c7.554 0 12.978 1.645 16.581 4.628l2.551-3.08C99.176 2.01 92.696.264 84.634.264v4zm16.593 4.638c3.603 2.938 5.504 7.21 5.504 13.138h4c0-6.873-2.26-12.392-6.977-16.238l-2.527 3.1zm5.504 13.138c0 3.781-.854 7.38-2.573 10.818l3.577 1.788c1.993-3.986 2.996-8.195 2.996-12.606h-4zm-2.573 10.818c-1.723 3.446-4.665 7.27-8.927 11.47l2.807 2.849c4.442-4.377 7.708-8.553 9.697-12.53l-3.577-1.79zm-8.938 11.48L84.276 55.282l2.829 2.828 10.944-10.944-2.829-2.828zm-9.53 14.358h19.105v-4H85.69v4zm19.105 0c2.136 0 3.369.52 4.076 1.209.697.679 1.219 1.849 1.219 3.895h4c0-2.69-.693-5.072-2.428-6.76-1.725-1.68-4.14-2.344-6.867-2.344v4zm5.295 5.104c0 2.085-.525 3.283-1.228 3.977-.708.698-1.937 1.223-4.067 1.223v4c2.733 0 5.152-.675 6.876-2.376 1.729-1.707 2.419-4.109 2.419-6.824h-4zm-5.295 5.2H71.386v4h33.409v-4z" fill="#000"/></svg>