<svg width="116" height="75" fill="none" xmlns="http://www.w3.org/2000/svg"><path opacity=".28" d="M9.6 62.936l-1.624 1.167.006.008L9.6 62.936zm0-51.744l1.6 1.2.006-.008L9.6 11.192zm38.4 0l-1.606 1.192.006.008 1.6-1.2zm0 51.744l1.618 1.175.006-.008L48 62.936zm-12.384-9.888l-1.822-.825-.003.008-.004.008 1.829.809zm0-31.968l-1.817.836.01.022.01.022 1.797-.88zm-13.728 0l-1.803-.865-.004.007-.003.008 1.81.85zm0 31.968l-1.835.796.01.021.01.021 1.815-.838zM28.8 70.056c-7.83 0-13.59-2.799-17.582-8.295l-3.236 2.35c4.84 6.664 11.88 9.945 20.818 9.945v-4zm-17.576-8.287c-4.08-5.676-6.248-13.877-6.248-24.849h-4c0 11.428 2.248 20.571 7 27.183l3.248-2.334zM4.976 36.92c0-11.048 2.173-19.127 6.224-24.528L8 9.992C3.22 16.366.976 25.44.976 36.92h4zm6.23-24.536c3.986-5.372 9.748-8.12 17.594-8.12v-4C19.878.264 12.84 3.468 7.994 10l3.212 2.384zM28.8 4.264c7.846 0 13.608 2.748 17.594 8.12L49.606 10C44.76 3.468 37.722.264 28.8.264v4zm17.6 8.128c4.052 5.403 6.224 13.451 6.224 24.432h4c0-11.42-2.244-20.46-7.024-26.832l-3.2 2.4zm6.224 24.432c0 11.04-2.17 19.27-6.248 24.945l3.248 2.334c4.754-6.613 7-15.79 7-27.279h-4zm-6.242 24.937c-3.992 5.496-9.753 8.295-17.582 8.295v4c8.939 0 15.978-3.281 20.818-9.945l-3.236-2.35zM28.8 60.04c1.92 0 3.68-.528 5.19-1.634 1.49-1.091 2.618-2.656 3.455-4.549l-3.658-1.618c-.635 1.435-1.378 2.366-2.16 2.94-.762.557-1.675.861-2.827.861v4zm8.638-6.167c1.72-3.8 2.482-9.568 2.482-17.049h-4c0 7.367-.774 12.414-2.126 15.399l3.644 1.65zm2.482-17.049c0-7.4-.756-13.047-2.508-16.624l-3.592 1.76c1.32 2.695 2.1 7.543 2.1 14.864h4zm-2.487-16.58c-.845-1.836-1.981-3.349-3.473-4.4-1.509-1.061-3.257-1.564-5.16-1.564v4c1.17 0 2.093.297 2.856.835.78.55 1.516 1.437 2.143 2.8l3.634-1.67zM28.8 14.28c-1.903 0-3.654.503-5.173 1.557-1.502 1.044-2.663 2.547-3.542 4.378l3.606 1.73c.657-1.369 1.416-2.265 2.218-2.822.785-.546 1.722-.843 2.891-.843v-4zm-8.723 5.95c-1.673 3.564-2.397 9.198-2.397 16.594h4c0-7.324.747-12.186 2.018-14.894l-3.62-1.7zM17.68 36.824c0 7.477.73 13.233 2.373 17.02l3.67-1.592c-1.3-2.997-2.043-8.057-2.043-15.428h-4zm2.392 17.062c.871 1.888 2.025 3.444 3.525 4.527 1.52 1.099 3.282 1.627 5.203 1.627v-4c-1.152 0-2.078-.304-2.861-.87-.804-.58-1.57-1.52-2.235-2.96l-3.632 1.676zm61.203 2.81v2h2v-2h-2zm0-34.272h2v-3.552l-3.038 1.842 1.038 1.71zm-5.857 3.552l-1.037-1.71-.01.007 1.047 1.703zm-4.704 1.248l-.342 1.97.042.008.042.005.258-1.983zm-5.76-5.664l1.955-.425-1.955.425zm.385-4.416l-1.863-.729 1.862.729zm3.456-3.744l1.02 1.72.018-.01.02-.013-1.058-1.697zm13.248-8.256l-1.057-1.698h-.001l1.058 1.698zm14.783-.768l-1.379 1.448.019.018.019.017 1.341-1.483zm2.017 52.32h-2v2h2v-2zM72.633 69c-2.13 0-3.359-.525-4.067-1.224-.703-.693-1.228-1.891-1.228-3.976h-4c0 2.715.69 5.117 2.419 6.824C67.482 72.325 69.9 73 72.635 73v-4zm-5.296-5.2c0-2.046.523-3.216 1.22-3.895.707-.688 1.94-1.209 4.076-1.209v-4c-2.727 0-5.142.663-6.867 2.343-1.735 1.69-2.428 4.071-2.428 6.761h4zm5.297-5.104h8.64v-4h-8.64v4zm10.64-2V22.424h-4v34.272h4zm-3.038-35.982l-5.856 3.552 2.075 3.42 5.856-3.552-2.075-3.42zm-5.867 3.559c-1.398.86-2.506 1.084-3.397.968l-.517 3.966c2.053.268 4.08-.34 6.01-1.528l-2.096-3.406zm-3.313.98c-1.08-.187-1.95-.64-2.672-1.363l-2.829 2.828c1.325 1.325 2.952 2.152 4.816 2.476l.685-3.94zm-2.672-1.363c-.742-.742-1.234-1.642-1.476-2.755l-3.909.85c.398 1.83 1.25 3.427 2.556 4.733l2.829-2.828zm-1.476-2.755c-.232-1.067-.148-2.138.292-3.262l-3.725-1.458c-.712 1.82-.884 3.693-.476 5.57l3.909-.85zm.292-3.262c.374-.956 1.163-1.893 2.613-2.752l-2.04-3.442c-2.005 1.19-3.52 2.748-4.298 4.736l3.725 1.458zm2.651-2.776L83.1 6.841l-2.115-3.394-13.248 8.256 2.115 3.394zM83.1 6.842c2.583-1.607 5.26-2.386 8.063-2.386v-4c-3.596 0-6.999 1.013-10.176 2.99l2.113 3.396zm8.063-2.386c2.083 0 3.417.542 4.285 1.368l2.759-2.896C96.386 1.194 93.944.456 91.162.456v4zm4.323 1.403c.806.73 1.358 1.907 1.358 3.893h3.999c0-2.75-.792-5.156-2.674-6.86L95.485 5.86zm1.358 3.893v46.944h3.999V9.752h-4zm2 48.944h7.68v-4h-7.68v4zm7.68 0c2.136 0 3.369.52 4.076 1.209.697.679 1.22 1.849 1.22 3.895h4c0-2.69-.694-5.072-2.429-6.76-1.725-1.68-4.14-2.344-6.867-2.344v4zm5.296 5.104c0 2.085-.526 3.283-1.229 3.977-.708.698-1.937 1.223-4.067 1.223v4c2.733 0 5.152-.675 6.876-2.376 1.729-1.707 2.42-4.109 2.42-6.824h-4zm-5.296 5.2H72.635v4h33.888v-4z" fill="#000"/></svg>